<svg xmlns="http://www.w3.org/2000/svg" viewBox="0 0 24 24">
  <rect width="24" height="24" rx="6" fill="#0d1117"/>
  <path
    fill="#ffffff"
    d="M12 .5C5.73.5.5 5.74.5 12.02c0 5.1 3.29 9.42 7.86 10.95.58.11.79-.25.79-.56v-2.02c-3.2.7-3.87-1.55-3.87-1.55-.52-1.33-1.28-1.69-1.28-1.69-1.05-.72.08-.71.08-.71 1.16.08 1.77 1.2 1.77 1.2 1.03 1.77 2.7 1.26 3.36.96.1-.75.4-1.26.72-1.55-2.55-.29-5.23-1.28-5.23-5.69 0-1.26.45-2.29 1.2-3.1-.12-.3-.52-1.51.11-3.15 0 0 .97-.31 3.18 1.18a11.02 11.02 0 0 1 5.8 0c2.2-1.49 3.17-1.18 3.17-1.18.64 1.64.24 2.85.12 3.15.75.81 1.2 1.84 1.2 3.1 0 4.42-2.69 5.4-5.25 5.69.41.35.77 1.05.77 2.12v3.14c0 .31.21.67.8.56A11.52 11.52 0 0 0 23.5 12C23.5 5.74 18.27.5 12 .5Z"
  />
</svg>
